<svg width="32" height="34" viewBox="0 0 32 34" fill="none" xmlns="http://www.w3.org/2000/svg">
<path d="M18.0278 1.59339C16.773 0.868933 15.2271 0.868933 13.9723 1.59339L3.67143 7.54059C2.41664 8.26504 1.64365 9.60389 1.64365 11.0528V22.9472C1.64365 24.3961 2.41664 25.735 3.67143 26.4594L13.9723 32.4066C15.2271 33.1311 16.773 33.1311 18.0278 32.4066L28.3287 26.4594C29.5835 25.735 30.3565 24.3961 30.3565 22.9472V11.0528C30.3565 9.60389 29.5835 8.26504 28.3287 7.54059L18.0278 1.59339Z" fill="#D9D9D9" stroke="black"/>
<path d="M19.0556 13.4444C19.0556 15.132 17.6876 16.5 16.0001 16.5C14.3125 16.5 12.9445 15.132 12.9445 13.4444C12.9445 11.7569 14.3125 10.3889 16.0001 10.3889C17.6876 10.3889 19.0556 11.7569 19.0556 13.4444Z" fill="#D9D9D9" stroke="black"/>
<path d="M8.00006 28.5556C8.00006 28.5556 9.90482 18.7778 16.0001 18.7778C22.0953 18.7778 24.0001 28.5556 24.0001 28.5556" stroke="black"/>
</svg>
