<svg width="24" height="24" viewBox="0 0 24 24" fill="none" xmlns="http://www.w3.org/2000/svg">
<g clip-path="url(#clip0_172_1764)">
<mask id="mask0_172_1764" style="mask-type:luminance" maskUnits="userSpaceOnUse" x="0" y="0" width="24" height="24">
<path d="M24 0H0V24H24V0Z" fill="white"/>
</mask>
<g mask="url(#mask0_172_1764)">
<path d="M18.883 5.0828C17.6171 4.49185 16.2596 4.05647 14.8402 3.80711C14.8143 3.80229 14.7885 3.81432 14.7752 3.83838C14.6006 4.15429 14.4072 4.56642 14.2718 4.89035C12.7452 4.65783 11.2264 4.65783 9.73103 4.89035C9.59557 4.55922 9.39516 4.15429 9.21979 3.83838C9.20647 3.81512 9.18065 3.8031 9.1548 3.80711C7.7362 4.05567 6.37867 4.49106 5.11195 5.0828C5.10098 5.08761 5.09158 5.09564 5.08535 5.10605C2.5104 9.01973 1.80501 12.8372 2.15105 16.6074C2.15262 16.6258 2.16279 16.6435 2.17689 16.6547C3.87576 17.9239 5.52142 18.6945 7.13651 19.2052C7.16236 19.2133 7.18975 19.2036 7.2062 19.182C7.58825 18.6512 7.92881 18.0915 8.22081 17.503C8.23804 17.4685 8.22159 17.4276 8.18637 17.414C7.64618 17.2055 7.13181 16.9513 6.63702 16.6627C6.59789 16.6394 6.59475 16.5825 6.63076 16.5552C6.73488 16.4759 6.83903 16.3933 6.93845 16.3099C6.95644 16.2946 6.9815 16.2914 7.00265 16.301C10.2532 17.8109 13.7723 17.8109 16.9845 16.301C17.0057 16.2906 17.0307 16.2938 17.0495 16.3091C17.149 16.3925 17.2531 16.4759 17.358 16.5552C17.394 16.5825 17.3916 16.6394 17.3525 16.6627C16.8577 16.9569 16.3433 17.2055 15.8024 17.4132C15.7671 17.4268 15.7515 17.4685 15.7687 17.503C16.067 18.0907 16.4075 18.6504 16.7825 19.1812C16.7982 19.2036 16.8264 19.2133 16.8522 19.2052C18.4751 18.6945 20.1208 17.9239 21.8197 16.6547C21.8346 16.6435 21.844 16.6266 21.8455 16.6082C22.2597 12.2495 21.1519 8.46328 18.9089 5.10685C18.9034 5.09564 18.894 5.08761 18.883 5.0828ZM8.70623 14.3117C7.72759 14.3117 6.92122 13.3977 6.92122 12.2751C6.92122 11.1526 7.71195 10.2385 8.70623 10.2385C9.70831 10.2385 10.5069 11.1606 10.4912 12.2751C10.4912 13.3977 9.70048 14.3117 8.70623 14.3117ZM15.306 14.3117C14.3274 14.3117 13.521 13.3977 13.521 12.2751C13.521 11.1526 14.3117 10.2385 15.306 10.2385C16.3081 10.2385 17.1067 11.1606 17.091 12.2751C17.091 13.3977 16.3081 14.3117 15.306 14.3117Z" fill="#2CE5A7"/>
</g>
</g>
<defs>
<clipPath id="clip0_172_1764">
<rect width="24" height="24" fill="white"/>
</clipPath>
</defs>
</svg>
