<svg width="24" height="24" viewBox="0 0 24 24" fill="none" xmlns="http://www.w3.org/2000/svg">
<g id="tabler/Frame">
<path id="Vector" d="M10.3251 4.317C10.7511 2.561 13.2491 2.561 13.6751 4.317C13.739 4.5808 13.8643 4.82578 14.0408 5.032C14.2173 5.23822 14.4399 5.39985 14.6907 5.50375C14.9415 5.60764 15.2132 5.65085 15.4838 5.62987C15.7545 5.60889 16.0163 5.5243 16.2481 5.383C17.7911 4.443 19.5581 6.209 18.6181 7.753C18.477 7.98466 18.3925 8.24634 18.3716 8.51677C18.3506 8.78721 18.3938 9.05877 18.4976 9.30938C18.6014 9.55999 18.7628 9.78258 18.9688 9.95905C19.1748 10.1355 19.4195 10.2609 19.6831 10.325C21.4391 10.751 21.4391 13.249 19.6831 13.675C19.4193 13.7389 19.1743 13.8642 18.9681 14.0407C18.7618 14.2172 18.6002 14.4399 18.4963 14.6907C18.3924 14.9414 18.3492 15.2132 18.3702 15.4838C18.3912 15.7544 18.4758 16.0162 18.6171 16.248C19.5571 17.791 17.7911 19.558 16.2471 18.618C16.0154 18.4769 15.7537 18.3924 15.4833 18.3715C15.2129 18.3506 14.9413 18.3938 14.6907 18.4975C14.4401 18.6013 14.2175 18.7627 14.041 18.9687C13.8645 19.1747 13.7392 19.4194 13.6751 19.683C13.2491 21.439 10.7511 21.439 10.3251 19.683C10.2611 19.4192 10.1358 19.1742 9.95935 18.968C9.78286 18.7618 9.56017 18.6001 9.30941 18.4963C9.05865 18.3924 8.7869 18.3491 8.51628 18.3701C8.24566 18.3911 7.98381 18.4757 7.75206 18.617C6.20906 19.557 4.44206 17.791 5.38206 16.247C5.52316 16.0153 5.60761 15.7537 5.62854 15.4832C5.64948 15.2128 5.6063 14.9412 5.50253 14.6906C5.39876 14.44 5.23732 14.2174 5.03133 14.0409C4.82535 13.8645 4.58062 13.7391 4.31706 13.675C2.56106 13.249 2.56106 10.751 4.31706 10.325C4.58086 10.2611 4.82584 10.1358 5.03206 9.95929C5.23828 9.7828 5.39992 9.56011 5.50381 9.30935C5.6077 9.05859 5.65091 8.78683 5.62993 8.51621C5.60895 8.24559 5.52436 7.98375 5.38306 7.752C4.44306 6.209 6.20906 4.442 7.75306 5.382C8.75306 5.99 10.0491 5.452 10.3251 4.317Z" stroke="#84F7D8" stroke-width="2" stroke-linecap="round" stroke-linejoin="round"/>
<path id="Vector_2" d="M9.00006 12C9.00006 12.7956 9.31613 13.5587 9.87874 14.1213C10.4413 14.6839 11.2044 15 12.0001 15C12.7957 15 13.5588 14.6839 14.1214 14.1213C14.684 13.5587 15.0001 12.7956 15.0001 12C15.0001 11.2044 14.684 10.4413 14.1214 9.87868C13.5588 9.31607 12.7957 9 12.0001 9C11.2044 9 10.4413 9.31607 9.87874 9.87868C9.31613 10.4413 9.00006 11.2044 9.00006 12Z" stroke="#84F7D8" stroke-width="2" stroke-linecap="round" stroke-linejoin="round"/>
</g>
</svg>
