<svg width="20" height="36" viewBox="0 0 20 36" fill="none" xmlns="http://www.w3.org/2000/svg">
<path d="M13.6754 34.6723C13.1294 34.6723 12.6885 34.2333 12.6885 33.6893V33.3617L12.3596 33.2961H11.3596V33.6238C11.3596 34.2267 10.9122 34.6723 10.3661 34.6723H9.84634C9.30026 34.6723 8.85287 34.2267 8.85287 33.6828V33.3551L8.52391 33.2961H7.43177V33.6238C7.43177 34.2267 6.98438 34.6723 6.43831 34.6723H5.91198C5.36591 34.6723 4.9251 34.2267 4.9251 33.6828V33.1716C4.9251 32.3066 4.2935 31.4415 3.33951 30.4127C3.18819 30.2619 3.04344 30.1112 2.91186 29.9605L2.87897 29.9277C2.61581 29.6263 2.3658 29.3051 2.14868 28.984L2.06315 28.853L2.04999 28.8202C1.47102 27.9158 1.04995 26.9459 0.80652 25.9236C-1.50278 18.1185 5.01063 12.5613 9.19499 9.90718C8.66208 10.8443 8.26075 12.1812 8.85287 13.6623L9.05684 14.18L9.41211 13.754C13.4517 8.8783 11.4451 4.67104 9.68843 2.42979C10.9648 3.38659 11.9846 4.46134 12.7214 5.6475L12.7741 5.73269C14.0899 8.39335 13.7346 11.1064 13.4254 13.505C13.103 15.969 12.807 18.2955 14.5044 19.888L14.9847 20.3401L15.0044 20.1304C15.136 20.1697 15.2742 20.1894 15.4123 20.1894C15.715 20.1894 16.0045 20.0977 16.2545 19.9207C16.3466 19.8552 16.4124 19.7962 16.4716 19.7372C16.7413 19.4358 16.8795 19.095 16.8861 18.7346C16.8729 18.3938 16.7413 18.0727 16.5045 17.7516L16.3795 17.5877C15.34 16.1722 14.761 15.3989 15.8005 12.5875C15.9058 12.1353 16.09 11.6766 16.3532 11.1916C16.1689 11.8601 16.09 12.5482 16.215 13.2494C16.3861 14.0358 16.7545 14.6387 17.1427 15.2875C17.2414 15.4513 17.3466 15.6217 17.4519 15.8052C18.7611 17.8695 19.4651 20.4253 19.5638 23.4202V23.6496C19.5638 26.2709 18.5572 28.6695 16.715 30.4716C15.8137 31.4546 15.215 32.2738 15.1821 33.1061V33.6893C15.1821 34.2333 14.7413 34.6723 14.1952 34.6723H13.6623H13.6754ZM6.83964 23.512C4.86588 23.512 3.26056 25.111 3.26056 27.077C3.26056 29.043 4.86588 30.642 6.83964 30.642C8.8134 30.642 10.4187 29.043 10.4187 27.077C10.4187 25.111 8.8134 23.512 6.83964 23.512ZM13.4583 24.318C11.9319 24.318 10.6885 25.5566 10.6885 27.077C10.6885 28.5974 11.9319 29.836 13.4583 29.836C14.9847 29.836 16.2282 28.5974 16.2282 27.077C16.2282 25.5566 14.9847 24.318 13.4583 24.318Z" fill="url(#paint0_linear_172_1740)"/>
<path d="M11.2082 4.21229C11.6819 4.72345 12.0964 5.25428 12.4451 5.81787L12.4846 5.8834C13.7478 8.45232 13.4057 11.113 13.0964 13.4591C12.7675 16.0083 12.4517 18.4134 14.2741 20.1239L15.2412 21.0151L15.2939 20.5105C15.3334 20.5105 15.3728 20.5105 15.4123 20.5105C15.7807 20.5105 16.1426 20.3991 16.465 20.1697C16.5505 20.1108 16.6295 20.0387 16.6953 19.9666L16.7479 19.9142C17.0374 19.593 17.2019 19.1736 17.2084 18.7345V18.6952C17.1887 18.3151 17.0374 17.9285 16.761 17.5549L16.636 17.3846C15.7149 16.1329 15.2149 15.4513 15.886 13.3149V13.328C16.0702 14.1537 16.4518 14.7829 16.8531 15.4513C16.9518 15.6151 17.0571 15.7855 17.1689 15.9821C18.4256 17.9678 19.1164 20.4384 19.2217 23.335V23.6954C19.2282 26.1726 18.2545 28.4925 16.4781 30.2291L16.465 30.2423L16.4518 30.2554C15.511 31.2777 14.8794 32.1558 14.8399 33.1126V33.6828C14.8399 34.0432 14.5439 34.3381 14.182 34.3381H13.6491C13.2872 34.3381 12.9912 34.0432 12.9912 33.6828V32.9619H11.0042V33.6762C11.0042 34.0432 10.7082 34.3381 10.3397 34.3381H9.81999C9.45155 34.3381 9.15549 34.0432 9.15549 33.6762V32.9619H7.07646V33.6762C7.07646 34.0366 6.7804 34.3381 6.41197 34.3381H5.88563C5.52378 34.3381 5.22114 34.0432 5.22114 33.6762V33.1651C5.22114 32.7718 5.11586 32.3918 4.91849 32.0051L5.25403 32.1689L4.43821 31.2384C4.1882 30.8976 3.87898 30.5437 3.53028 30.1702C3.39212 30.0325 3.25396 29.8884 3.12237 29.7376L3.10264 29.7114H3.09605C2.83946 29.41 2.60262 29.102 2.39208 28.7874L2.32629 28.6957L2.29997 28.6498L2.28681 28.6301L2.27365 28.6105C1.721 27.752 1.31967 26.8148 1.08282 25.8318V25.7991C-1.00279 18.7739 4.32636 13.5902 8.38573 10.7853C8.12256 11.6373 8.05676 12.653 8.50415 13.7605L8.91207 14.7894L9.62262 13.9375C12.8135 10.0841 12.3661 6.63704 11.1621 4.18608M6.80014 30.95C8.55678 30.95 10.0437 29.7901 10.5371 28.1976C10.9977 29.3379 12.1161 30.144 13.4188 30.144C15.1294 30.144 16.5176 28.7612 16.5176 27.0573C16.5176 25.3534 15.1294 23.9707 13.4188 23.9707C12.1161 23.9707 10.9977 24.7767 10.5371 25.917C10.0437 24.3246 8.55678 23.1646 6.80014 23.1646C4.64216 23.1646 2.8921 24.9144 2.8921 27.0573C2.8921 29.2003 4.64874 30.95 6.80014 30.95ZM7.46463 0.66037C7.85939 0.988038 8.24098 1.33537 8.61599 1.6958C10.5042 3.64215 13.6425 8.14431 9.16207 13.5443C8.08966 10.8705 10.5174 8.74067 10.5174 8.74067C3.76714 12.522 -1.70018 18.6035 0.490694 26.0088C0.747283 27.0835 1.18809 28.0862 1.76706 28.9906C1.79996 29.0561 1.83284 29.1216 1.87232 29.1872H1.88548C2.11575 29.5214 2.36577 29.8425 2.64209 30.1571L2.67498 30.1898C2.81314 30.3471 2.95789 30.4978 3.10921 30.6486C4.05004 31.6643 4.60927 32.4507 4.60927 33.1847V33.6959C4.60927 34.4167 5.2014 35.0131 5.93169 35.0131H6.45802C7.18173 35.0131 7.78044 34.4233 7.78044 33.6959V33.6369H8.54363V33.6959C8.54363 34.4233 9.13576 35.0131 9.86605 35.0131H10.3858C11.1161 35.0131 11.7082 34.4233 11.7082 33.6959V33.6369H12.3793V33.7024C12.3793 34.4233 12.9714 35.0131 13.6951 35.0131H14.2281C14.9518 35.0131 15.5439 34.4233 15.5439 33.7024V33.1323C15.5702 32.4311 16.1031 31.6774 16.9847 30.7141C18.8072 28.9316 19.9322 26.4544 19.9322 23.7151C19.9322 23.6692 19.9322 23.6299 19.9322 23.584C19.8598 20.7857 19.2677 18.0137 17.7677 15.6479C17.2742 14.7894 16.7742 14.1144 16.5702 13.2035C16.2939 11.6504 17.0966 10.1234 17.794 8.75377C16.4123 10.2873 15.761 11.4538 15.5241 12.4892C14.3859 15.5758 15.136 16.4212 16.2676 17.9612C16.4847 18.2627 16.5768 18.5248 16.5834 18.7477C16.5834 19.0229 16.4781 19.2916 16.2873 19.5013C16.2808 19.5078 16.2676 19.521 16.261 19.5275C16.215 19.5734 16.1623 19.6192 16.1097 19.6586L16.0965 19.6717C15.8992 19.8093 15.6689 19.8748 15.4452 19.8748C15.2018 19.8748 14.9583 19.7962 14.7544 19.652V19.6651C11.5898 16.703 15.8926 11.0343 13.0241 5.46398V5.48365C11.8398 3.59628 10.0239 1.9907 7.46463 0.66037ZM6.83961 30.3209C5.04349 30.3209 3.58949 28.8726 3.58949 27.0835C3.58949 25.2945 5.04349 23.8462 6.83961 23.8462C8.63573 23.8462 10.0897 25.2945 10.0897 27.0835C10.0897 28.8726 8.63573 30.3209 6.83961 30.3209ZM13.4583 29.5148C12.1095 29.5148 11.0174 28.427 11.0174 27.0835C11.0174 25.7401 12.1095 24.6522 13.4583 24.6522C14.807 24.6522 15.8992 25.7401 15.8992 27.0835C15.8992 28.427 14.807 29.5148 13.4583 29.5148Z" fill="#3BE1E9"/>
<defs>
<linearGradient id="paint0_linear_172_1740" x1="0.326239" y1="18.5511" x2="19.5835" y2="18.5511" gradientUnits="userSpaceOnUse">
<stop stop-color="#2386A7"/>
<stop offset="0.23" stop-color="#30B7CA"/>
<stop offset="0.444444" stop-color="#38D5E0"/>
<stop offset="0.512152" stop-color="#3BE1E9"/>
<stop offset="1" stop-color="#3BE1E9"/>
</linearGradient>
</defs>
</svg>
