<svg width="24" height="24" viewBox="0 0 24 24" fill="none" xmlns="http://www.w3.org/2000/svg">
<g clip-path="url(#clip0_172_1762)">
<mask id="mask0_172_1762" style="mask-type:luminance" maskUnits="userSpaceOnUse" x="0" y="0" width="25" height="24">
<path d="M7.11488 0.201826C5.8444 0.261791 4.97666 0.46529 4.21838 0.76241C3.43343 1.06842 2.76802 1.47852 2.10609 2.14317C1.44337 2.80821 1.03638 3.47479 0.7327 4.26054C0.438674 5.02075 0.239431 5.88891 0.183328 7.16017C0.127626 8.43377 0.114852 8.83999 0.121061 12.0824C0.127246 15.3244 0.141555 15.7314 0.202289 17.0054C0.263021 18.2755 0.46576 19.1429 0.762878 19.9015C1.06928 20.6865 1.47896 21.3515 2.14398 22.0139C2.80863 22.6762 3.4756 23.0828 4.26171 23.3869C5.02115 23.6805 5.88967 23.8806 7.16055 23.9363C8.43413 23.9924 8.84071 24.0047 12.0823 23.9986C15.3254 23.9924 15.7321 23.978 17.0056 23.9177C18.2761 23.857 19.1431 23.6535 19.9021 23.3571C20.6871 23.0499 21.3525 22.641 22.0144 21.976C22.6764 21.3113 23.0834 20.6443 23.3871 19.8582C23.6811 19.0988 23.8811 18.2302 23.9364 16.9601C23.9921 15.6858 24.0053 15.2788 23.9991 12.0367C23.9929 8.79433 23.9782 8.38811 23.9179 7.11491C23.8575 5.84364 23.654 4.97665 23.3573 4.2176C23.0505 3.43263 22.6412 2.76797 21.9765 2.10526C21.3119 1.44332 20.6449 1.03554 19.8588 0.732624C19.099 0.438596 18.2308 0.23819 16.96 0.183254C15.6864 0.126771 15.2798 0.114399 12.037 0.120586C8.79507 0.126774 8.38848 0.140706 7.11488 0.201826ZM7.25418 21.7872C6.09007 21.7365 5.45793 21.543 5.03663 21.381C4.47876 21.1651 4.08067 20.9062 3.66169 20.4904C3.24349 20.0729 2.98389 19.676 2.76608 19.1193C2.60242 18.698 2.40552 18.0666 2.35097 16.9025C2.29178 15.644 2.27825 15.2664 2.27243 12.0781C2.26625 8.89067 2.27784 8.51307 2.33279 7.25341C2.38268 6.09007 2.5773 5.45715 2.739 5.03622C2.95486 4.47757 3.2129 4.08025 3.62957 3.66127C4.047 3.24228 4.44393 2.98346 5.00102 2.76565C5.42194 2.60122 6.05332 2.40585 7.21703 2.35054C8.4763 2.29095 8.85348 2.27819 12.0409 2.272C15.2291 2.2658 15.6067 2.27703 16.8664 2.33235C18.0297 2.38303 18.6626 2.5757 19.0831 2.73857C19.6414 2.95444 20.0395 3.21172 20.4581 3.62916C20.8766 4.0466 21.1362 4.44276 21.354 5.00102C21.5185 5.42077 21.7138 6.05293 21.7688 7.21627C21.8287 8.47555 21.8423 8.85314 21.8481 12.0406C21.8543 15.2289 21.8427 15.6064 21.7873 16.8653C21.7367 18.0294 21.5436 18.662 21.3811 19.0837C21.1653 19.6412 20.9072 20.0393 20.4902 20.4582C20.0731 20.8757 19.6762 21.136 19.1187 21.3539C18.6986 21.5179 18.0664 21.7137 16.9035 21.769C15.6442 21.8282 15.267 21.8417 12.0784 21.8475C8.89101 21.8537 8.51382 21.8417 7.25418 21.7872ZM16.9882 5.6769C16.9898 6.46767 17.6327 7.10795 18.4235 7.1064C19.2146 7.10486 19.8549 6.46225 19.8538 5.67148C19.8522 4.8807 19.2092 4.24004 18.4181 4.24159C17.627 4.24314 16.9867 4.88612 16.9882 5.6769ZM5.92915 12.0712C5.93571 15.4575 8.68598 18.1966 12.0715 18.19C15.4574 18.1834 18.198 15.4339 18.1914 12.0476C18.1848 8.66242 15.4342 5.92178 12.0479 5.92836C8.66237 5.93494 5.92256 8.68563 5.92915 12.0712ZM8.07975 12.0669C8.07588 9.86908 9.85471 8.08365 12.0521 8.07978C14.25 8.07553 16.0357 9.8536 16.04 12.0518C16.0443 14.2501 14.2654 16.0351 12.0672 16.0394C9.8698 16.0436 8.084 14.2651 8.07975 12.0669Z" fill="white"/>
</mask>
<g mask="url(#mask0_172_1762)">
<mask id="mask1_172_1762" style="mask-type:luminance" maskUnits="userSpaceOnUse" x="-1" y="-1" width="26" height="26">
<path d="M24.9461 -0.814026H-0.845276V24.9776H24.9461V-0.814026Z" fill="white"/>
</mask>
<g mask="url(#mask1_172_1762)">
<mask id="mask2_172_1762" style="mask-type:luminance" maskUnits="userSpaceOnUse" x="-1" y="-1" width="27" height="27">
<path d="M25.0655 -0.934143H-0.964661V25.0964H25.0655V-0.934143Z" fill="white"/>
</mask>
<g mask="url(#mask2_172_1762)">
<mask id="mask3_172_1762" style="mask-type:luminance" maskUnits="userSpaceOnUse" x="-1" y="-1" width="27" height="27">
<path d="M25.0657 -0.934143H-0.964417V25.0964H25.0657V-0.934143Z" fill="white"/>
</mask>
<g mask="url(#mask3_172_1762)">
<rect x="-6.10352e-05" y="0.000427246" width="24" height="24" fill="#2CE5A7"/>
</g>
</g>
</g>
</g>
</g>
<defs>
<clipPath id="clip0_172_1762">
<rect width="24" height="24" fill="white"/>
</clipPath>
</defs>
</svg>
