<svg width="93" height="32" viewBox="0 0 93 32" fill="none" xmlns="http://www.w3.org/2000/svg">
<path d="M6.1816 22.8902L4.06614 25.1402V30.7122H0V11.2084H4.06614V20.0531L5.85585 17.6288L10.8839 11.2122H15.8852L8.87576 19.8826L16.0883 30.7235H11.248L6.17777 22.8978L6.1816 22.8902Z" fill="#2CE5A7"/>
<path d="M17.6212 30.7159V11.2084H24.5348C26.93 11.2084 28.8999 11.7387 29.9844 12.5682C31.2031 13.5 31.8431 14.8031 31.8431 16.5531C31.8431 17.5076 31.594 18.3523 31.0958 19.0796C30.5976 19.8069 29.9078 20.3409 29.0225 20.6819C30.0342 20.9319 30.8314 21.4356 31.4139 22.197C31.9964 22.9546 32.2877 23.8864 32.2877 24.9849C32.2877 26.8599 31.6822 28.2803 30.4711 29.2463C29.2601 30.2122 27.6084 30.7197 25.2936 30.7197H17.6212V30.7159ZM21.6874 19.3826H24.6958C26.7461 19.3485 27.7732 18.5379 27.7732 16.9584C27.7732 16.0758 27.5126 15.4394 26.9952 15.0493C26.474 14.6591 25.6539 14.4659 24.5348 14.4659H21.6874V19.3826ZM21.6874 22.2235V27.4887H25.171C26.1291 27.4887 26.8764 27.2614 27.4129 26.8106C27.9494 26.3599 28.2215 25.7349 28.2215 24.9432C28.2215 23.1553 27.2864 22.25 25.4162 22.2235H21.6874Z" fill="#2CE5A7"/>
<path d="M70.6573 21.4053C70.6573 23.3258 70.3124 25.0114 69.6264 26.4583C68.9404 27.9053 67.9555 29.0227 66.6793 29.8068C65.3993 30.5947 63.9353 30.9848 62.2798 30.9848C60.6242 30.9848 59.1832 30.5947 57.9032 29.8182C56.6194 29.0417 55.6268 27.9318 54.9216 26.4886C54.2165 25.0455 53.8601 23.3864 53.8524 21.5114V20.5455C53.8524 18.625 54.2011 16.9356 54.9025 15.4735C55.6038 14.0114 56.5925 12.8939 57.8725 12.1098C59.1525 11.3295 60.6127 10.9394 62.2568 10.9394C63.9008 10.9394 65.3648 11.3295 66.641 12.1098C67.921 12.8901 68.9097 14.0114 69.6111 15.4735C70.3124 16.9356 70.6611 18.6212 70.6611 20.5303V21.4015L70.6573 21.4053ZM66.5375 20.5227C66.5375 18.4773 66.1658 16.9242 65.4261 15.8598C64.6865 14.7955 63.6287 14.2651 62.2529 14.2651C60.8771 14.2651 59.8347 14.7917 59.0951 15.8409C58.3554 16.8901 57.9798 18.428 57.9683 20.4583V21.4091C57.9683 23.4015 58.3401 24.947 59.0797 26.0455C59.8194 27.1439 60.8886 27.6932 62.2798 27.6932C63.6709 27.6932 64.6941 27.1629 65.4261 26.1061C66.1581 25.0492 66.5298 23.5038 66.5375 21.4773V20.5265V20.5227Z" fill="#2CE5A7"/>
<path d="M77.5441 11.2084L82.6143 25.3561L87.6577 11.2084H93V30.7159H88.9185V25.3826L89.3248 16.1781L83.9978 30.7159H81.204L75.8885 16.1932L76.2947 25.3826V30.7159H72.2286V11.2084H77.5441Z" fill="#2CE5A7"/>
<path d="M52.1853 21.3523C52.1202 18.7462 51.5606 16.1591 50.1541 13.9583C49.6904 13.1553 49.2191 12.5265 49.0313 11.678C48.7707 10.2348 49.5256 8.80682 50.1771 7.5303C48.8818 8.95833 48.2686 10.0455 48.0464 11.0076C46.9771 13.8826 47.6823 14.6705 48.7438 16.1061C48.9508 16.3864 49.0313 16.6288 49.0428 16.8409C49.0389 17.0947 48.947 17.3447 48.7668 17.5417C48.7592 17.5492 48.7515 17.5606 48.7438 17.5682C48.7017 17.6136 48.6519 17.6553 48.602 17.6932L48.5867 17.7045C48.1958 17.9735 47.6899 17.9508 47.3259 17.6856V17.697C44.3519 14.9356 48.3951 9.6553 45.7009 4.46591V4.48864C44.6049 2.73864 42.8995 1.23864 40.4966 0C40.8645 0.30303 41.2247 0.625 41.5735 0.962121C43.3479 2.77652 46.2911 6.9697 42.087 12.0038C41.0829 9.51136 43.3594 7.52652 43.3594 7.52652C37.0168 11.0492 31.8853 16.7159 33.9432 23.6136C34.1847 24.6136 34.5947 25.5492 35.1428 26.3902C35.1773 26.4508 35.2041 26.5114 35.2424 26.572L35.2539 26.5644C35.4724 26.8826 35.7061 27.1856 35.9629 27.4735L35.9974 27.5076C36.1277 27.6553 36.2657 27.7992 36.4036 27.9356C37.2851 28.8826 37.8101 29.6136 37.8101 30.2992V30.7727C37.8101 31.447 38.3658 31.9962 39.048 31.9962H39.5423C40.2245 31.9962 40.7802 31.447 40.7802 30.7727V30.7159H41.4968V30.7689C41.4968 31.4432 42.0564 31.9962 42.7385 31.9962H43.2252C43.9074 31.9962 44.4669 31.4432 44.4669 30.7689V30.7159H45.0954V30.7765C45.0954 31.447 45.6511 32 46.3333 32H46.8315C47.5098 32 48.0693 31.4508 48.0693 30.7765V30.2424C48.0962 29.5871 48.5905 28.8864 49.4183 27.9886C51.1276 26.3295 52.1891 24.0227 52.1891 21.4659C52.1891 21.4242 52.1891 21.3864 52.1853 21.3447H52.1891L52.1853 21.3523ZM46.1302 22.3523C47.3987 22.3523 48.4258 23.3674 48.4258 24.6212C48.4258 25.875 47.3987 26.8902 46.1302 26.8902C44.8617 26.8902 43.8346 25.875 43.8346 24.6212C43.8346 23.3674 44.8617 22.3523 46.1302 22.3523ZM39.9141 21.6023C41.6003 21.6023 42.9685 22.9545 42.9685 24.6212C42.9685 26.2879 41.6003 27.6402 39.9141 27.6402C38.2278 27.6402 36.8597 26.2879 36.8597 24.6212C36.8597 22.9545 38.2278 21.6023 39.9141 21.6023Z" fill="white"/>
<path d="M39.1783 14.9356C41.7766 14.3637 43.2674 19.2765 43.2674 19.2765C43.2674 19.2765 43.9074 18.1212 43.8384 16C43.8384 16 46.0919 20.5985 49.357 19.2273C52.5609 17.8788 52.1662 23.2462 51.2464 25.4659C51.8404 24.2576 52.1853 22.9091 52.1853 21.4735C52.1853 21.4318 52.1853 21.394 52.1815 21.3523H52.1853C52.1202 18.7462 51.5606 16.1591 50.1542 13.9584C49.6904 13.1553 49.2191 12.5265 49.0313 11.6781C48.7707 10.2349 49.5257 8.80684 50.1772 7.53032C48.8818 8.95835 48.1 9.97729 47.7206 11.019C46.6475 13.894 47.6823 14.6705 48.7439 16.1061C48.9508 16.3864 49.0313 16.6288 49.0428 16.8409C49.0389 17.0947 48.947 17.3447 48.7668 17.5417C48.7592 17.5493 48.7515 17.5606 48.7439 17.5682C48.7017 17.6137 48.6519 17.6553 48.6021 17.6932L48.5867 17.7046C48.1958 17.9735 47.6899 17.9508 47.3259 17.6856V17.697C44.352 14.9356 48.3951 9.65532 45.701 4.46593V4.48866C44.6049 2.74623 42.8995 1.24245 40.5004 0.00759888C40.8683 0.310629 41.2286 0.632599 41.5773 0.96972C43.3517 2.78411 46.295 6.97729 42.0909 12.0114C41.0868 9.51896 43.3632 7.53411 43.3632 7.53411C37.0206 11.0568 31.8891 16.7235 33.9471 23.6212C33.4872 18.144 35.7828 15.6856 39.1783 14.9394V14.9356Z" fill="#21CE99"/>
</svg>
