<svg width="24" height="24" viewBox="0 0 24 24" fill="none" xmlns="http://www.w3.org/2000/svg">
<g id="tabler-icon-bell">
<path id="Vector" d="M9.00006 17V18C9.00006 18.7956 9.31613 19.5587 9.87874 20.1213C10.4413 20.6839 11.2044 21 12.0001 21C12.7957 21 13.5588 20.6839 14.1214 20.1213C14.684 19.5587 15.0001 18.7956 15.0001 18V17M10.0001 5C10.0001 4.46957 10.2108 3.96086 10.5858 3.58579C10.9609 3.21071 11.4696 3 12.0001 3C12.5305 3 13.0392 3.21071 13.4143 3.58579C13.7893 3.96086 14.0001 4.46957 14.0001 5C15.1485 5.54303 16.1275 6.38833 16.8321 7.4453C17.5368 8.50227 17.9405 9.73107 18.0001 11V14C18.0753 14.6217 18.2955 15.2171 18.6429 15.7381C18.9903 16.2592 19.4551 16.6914 20.0001 17H4.00006C4.545 16.6914 5.00987 16.2592 5.35725 15.7381C5.70463 15.2171 5.92481 14.6217 6.00006 14V11C6.05962 9.73107 6.46336 8.50227 7.16801 7.4453C7.87266 6.38833 8.85165 5.54303 10.0001 5Z" stroke="#84F7D8" stroke-width="2" stroke-linecap="round" stroke-linejoin="round"/>
</g>
</svg>
