<svg width="24" height="24" viewBox="0 0 24 24" fill="none" xmlns="http://www.w3.org/2000/svg">
<g id="tabler/Frame">
<path id="Vector" d="M3.00006 12C3.00006 13.1819 3.23285 14.3522 3.68515 15.4442C4.13744 16.5361 4.80037 17.5282 5.6361 18.364C6.47183 19.1997 7.46398 19.8626 8.55591 20.3149C9.64784 20.7672 10.8182 21 12.0001 21C13.182 21 14.3523 20.7672 15.4442 20.3149C16.5361 19.8626 17.5283 19.1997 18.364 18.364C19.1997 17.5282 19.8627 16.5361 20.315 15.4442C20.7673 14.3522 21.0001 13.1819 21.0001 12C21.0001 10.8181 20.7673 9.64778 20.315 8.55585C19.8627 7.46392 19.1997 6.47177 18.364 5.63604C17.5283 4.80031 16.5361 4.13738 15.4442 3.68508C14.3523 3.23279 13.182 3 12.0001 3C10.8182 3 9.64784 3.23279 8.55591 3.68508C7.46398 4.13738 6.47183 4.80031 5.6361 5.63604C4.80037 6.47177 4.13744 7.46392 3.68515 8.55585C3.23285 9.64778 3.00006 10.8181 3.00006 12Z" stroke="#84F7D8" stroke-width="2" stroke-linecap="round" stroke-linejoin="round"/>
<path id="Vector_2" d="M9.00006 10C9.00006 10.7956 9.31613 11.5587 9.87874 12.1213C10.4413 12.6839 11.2044 13 12.0001 13C12.7957 13 13.5588 12.6839 14.1214 12.1213C14.684 11.5587 15.0001 10.7956 15.0001 10C15.0001 9.20435 14.684 8.44129 14.1214 7.87868C13.5588 7.31607 12.7957 7 12.0001 7C11.2044 7 10.4413 7.31607 9.87874 7.87868C9.31613 8.44129 9.00006 9.20435 9.00006 10Z" stroke="#84F7D8" stroke-width="2" stroke-linecap="round" stroke-linejoin="round"/>
<path id="Vector_3" d="M6.16806 18.849C6.41557 18.0252 6.92203 17.3032 7.61231 16.79C8.30258 16.2768 9.13991 15.9997 10.0001 16H14.0001C14.8613 15.9997 15.6997 16.2774 16.3904 16.7918C17.0812 17.3062 17.5875 18.0298 17.8341 18.855" stroke="#84F7D8" stroke-width="2" stroke-linecap="round" stroke-linejoin="round"/>
</g>
</svg>
