<svg width="24" height="24" viewBox="0 0 24 24" fill="none" xmlns="http://www.w3.org/2000/svg">
<path d="M15.0001 21H6.00006C5.20441 21 4.44135 20.6839 3.87874 20.1213C3.31613 19.5587 3.00006 18.7957 3.00006 18V17H13.0001V19C13.0001 19.5304 13.2108 20.0391 13.5858 20.4142C13.9609 20.7893 14.4696 21 15.0001 21ZM15.0001 21C15.5305 21 16.0392 20.7893 16.4143 20.4142C16.7893 20.0391 17.0001 19.5304 17.0001 19V5C17.0001 4.60444 17.1174 4.21776 17.3371 3.88886C17.5569 3.55996 17.8692 3.30362 18.2347 3.15224C18.6001 3.00087 19.0023 2.96126 19.3902 3.03843C19.7782 3.1156 20.1346 3.30608 20.4143 3.58579C20.694 3.86549 20.8845 4.22186 20.9616 4.60982C21.0388 4.99778 20.9992 5.39992 20.8478 5.76537C20.6964 6.13082 20.4401 6.44318 20.1112 6.66294C19.7823 6.8827 19.3956 7 19.0001 7H17.0001M19.0001 3H8.00006C7.20441 3 6.44135 3.31607 5.87874 3.87868C5.31613 4.44129 5.00006 5.20435 5.00006 6V17M9.00006 7H13.0001M9.00006 11H13.0001" stroke="#84F7D8" stroke-width="2" stroke-linecap="round" stroke-linejoin="round"/>
</svg>
