<svg width="12" height="12" viewBox="0 0 12 12" fill="none" xmlns="http://www.w3.org/2000/svg">
<rect x="0.500061" y="0.5" width="11" height="11" rx="5.5" fill="#BCAAE8"/>
<path d="M3.50006 6.62766C3.22392 6.62766 3.00006 6.4038 3.00006 6.12766V5.72872C3.00006 5.45258 3.22392 5.22872 3.50006 5.22872H5.04793C5.186 5.22872 5.29793 5.11679 5.29793 4.97872V3.5C5.29793 3.22386 5.52179 3 5.79793 3H6.19687C6.47301 3 6.69687 3.22386 6.69687 3.5V4.97872C6.69687 5.11679 6.8088 5.22872 6.94687 5.22872H8.50006C8.7762 5.22872 9.00006 5.45258 9.00006 5.72872V6.12766C9.00006 6.4038 8.7762 6.62766 8.50006 6.62766H6.94687C6.8088 6.62766 6.69687 6.73959 6.69687 6.87766V8.35638C6.69687 8.63252 6.47301 8.85638 6.19687 8.85638H5.79793C5.52179 8.85638 5.29793 8.63253 5.29793 8.35638V6.87766C5.29793 6.73959 5.186 6.62766 5.04793 6.62766H3.50006Z" fill="white"/>
<rect x="0.500061" y="0.5" width="11" height="11" rx="5.5" stroke="#6D43C0"/>
</svg>
