<svg width="40" height="40" viewBox="0 0 40 40" fill="none" xmlns="http://www.w3.org/2000/svg">
<path d="M29.1581 18.2163H10.6506L10.5905 22.4129H18.9962L12.6339 28.5409H5.25244V17.5884C5.25244 17.0935 5.44919 16.6187 5.79927 16.269L10.0654 12.0074C10.4155 11.6577 10.8907 11.4611 11.3862 11.4611H15.4954L19.6978 7.26309H10.3482C9.34932 7.26309 8.39165 7.65905 7.68496 8.36427L2.15519 13.8875C1.44924 14.5927 1.05286 15.5494 1.05286 16.5465V32.7368H14.5883L29.1581 18.2163Z" fill="#EB0045"/>
<path d="M28.4646 11.459H34.7356V22.4129C34.7356 22.9079 34.5383 23.3818 34.1873 23.7323L30.1401 27.7793C29.6498 28.2678 28.9854 28.5416 28.2927 28.5416H25.7723L21.5503 32.7368H29.5772C29.9754 32.7368 30.5745 32.6161 30.9858 32.4824C30.885 32.5207 30.7827 32.5569 30.679 32.5865C30.8451 32.5402 30.9713 32.4933 31.0547 32.4586C31.1722 32.4181 31.2708 32.3762 31.339 32.3372C31.339 32.3372 31.6959 32.2223 32.2964 31.6349L37.8421 26.1109C38.55 25.4057 38.9475 24.4491 38.9475 23.4519V7.26309H26.6854L20.6255 13.2993L20.2106 13.7126H26.2017L28.4653 11.4582L28.4646 11.459Z" fill="#F9F9F9"/>
</svg>
