<svg width="24" height="24" viewBox="0 0 24 24" fill="none" xmlns="http://www.w3.org/2000/svg">
<path d="M9.72046 9.44145V8.50756C9.39629 8.45623 9.06886 8.4281 8.74067 8.42339C5.56337 8.41661 2.7504 10.4756 1.79626 13.5063C0.842106 16.5369 1.96837 19.836 4.57635 21.6506C3.62 20.6271 2.98033 19.3486 2.73455 17.9696C2.48877 16.5905 2.6474 15.1698 3.19127 13.8789C3.73516 12.588 4.64103 11.4821 5.79958 10.6947C6.95813 9.90733 8.31981 9.47211 9.72027 9.44157L9.72046 9.44145Z" fill="#25F4EE"/>
<path d="M9.8966 20.0202C11.6731 20.0178 13.1333 18.6183 13.2111 16.8435V1.00609H16.1043C16.0453 0.675153 16.0171 0.339445 16.0202 0.0032959H12.0628V15.8255C11.9969 17.6092 10.5332 19.0222 8.74828 19.025C8.21488 19.0205 7.69017 18.8893 7.21741 18.6423C7.52382 19.0668 7.92623 19.4129 8.39184 19.6524C8.85745 19.8919 9.37304 20.0179 9.8966 20.0202ZM21.5085 6.37956V5.49925C20.4437 5.49967 19.4025 5.18549 18.5156 4.5961C19.293 5.4999 20.3436 6.12593 21.5085 6.37956Z" fill="#25F4EE"/>
<path d="M18.5156 4.59609C17.642 3.60126 17.1603 2.32237 17.1608 0.998352H16.1043C16.2408 1.73039 16.525 2.42694 16.9396 3.0455C17.3541 3.66406 17.8904 4.19165 18.5156 4.59609ZM8.74067 12.3809C7.99977 12.3846 7.28138 12.6359 6.69972 13.0949C6.11805 13.5539 5.70653 14.1941 5.53057 14.9138C5.35457 15.6336 5.42423 16.3915 5.7285 17.067C6.03273 17.7426 6.55411 18.2971 7.20969 18.6423C6.85122 18.1474 6.6366 17.5631 6.58944 16.9538C6.54232 16.3446 6.6645 15.7342 6.94251 15.19C7.22056 14.6459 7.6436 14.1891 8.16494 13.8704C8.68624 13.5515 9.28555 13.3831 9.89662 13.3835C10.2288 13.3879 10.5587 13.4396 10.8763 13.5371V9.51035C10.552 9.4617 10.2246 9.43613 9.89662 9.43384H9.72046V12.4956C9.40119 12.41 9.07112 12.3713 8.74067 12.3809Z" fill="#2CE5A7"/>
<path d="M21.5086 6.37955V9.44144C19.5373 9.43761 17.6172 8.81361 16.0202 7.6579V15.7029C16.0117 19.7173 12.755 22.9672 8.74068 22.9672C7.24977 22.9699 5.79477 22.5098 4.57635 21.6506C5.56989 22.7192 6.86221 23.4639 8.28499 23.7876C9.70772 24.1113 11.195 23.999 12.5531 23.4654C13.9111 22.9318 15.077 22.0016 15.8989 20.7959C16.7207 19.5903 17.1605 18.165 17.1608 16.7059V8.68366C18.7631 9.8318 20.6856 10.4476 22.6567 10.4442V6.50173C22.2708 6.50058 21.8861 6.45962 21.5086 6.37955Z" fill="#2CE5A7"/>
<path d="M16.0202 15.7029V7.65791C17.622 8.80704 19.5448 9.423 21.5161 9.41845V6.35667C20.3515 6.1107 19.2984 5.49278 18.5156 4.59609C17.8904 4.19165 17.3541 3.66406 16.9395 3.0455C16.5249 2.42694 16.2408 1.73039 16.1043 0.998352H13.211V16.8437C13.1829 17.5334 12.9405 18.1972 12.5178 18.7429C12.0949 19.2886 11.5127 19.689 10.8518 19.8885C10.191 20.088 9.48441 20.0766 8.83029 19.8561C8.1762 19.6356 7.60701 19.2167 7.20189 18.6578C6.54623 18.3126 6.02474 17.7581 5.72043 17.0825C5.41609 16.4069 5.34638 15.6489 5.52238 14.9291C5.69838 14.2093 6.10994 13.569 6.69168 13.1101C7.27343 12.6511 7.99193 12.3998 8.73291 12.3961C9.06523 12.3991 9.39534 12.4507 9.7127 12.5492V9.48735C8.30474 9.51123 6.9341 9.94423 5.76797 10.7336C4.60181 11.523 3.69055 12.6346 3.14525 13.9329C2.59996 15.2313 2.4442 16.6602 2.69697 18.0455C2.94974 19.4308 3.60012 20.7127 4.56881 21.7347C5.79917 22.5657 7.25624 22.9961 8.74064 22.9672C12.755 22.9672 16.0117 19.7173 16.0202 15.7029Z" fill="#2CE5A7"/>
</svg>
