<svg width="24" height="24" viewBox="0 0 24 24" fill="none" xmlns="http://www.w3.org/2000/svg">
<g clip-path="url(#clip0_172_1758)">
<path d="M21.543 6.73C21.5576 6.93614 21.5576 7.14227 21.5576 7.35031C21.5576 13.6893 16.6045 21 7.54759 21V20.9962C4.87215 21 2.25229 20.2533 0 18.8455C0.389031 18.8911 0.780012 18.9139 1.17197 18.9149C3.38915 18.9168 5.54296 18.192 7.28726 16.8573C5.18026 16.8184 3.3326 15.4799 2.68714 13.5259C3.42523 13.6646 4.18574 13.6361 4.91018 13.4432C2.61304 12.9911 0.96039 11.0247 0.96039 8.74102C0.96039 8.72013 0.96039 8.70018 0.96039 8.68023C1.64485 9.05165 2.41121 9.25779 3.19512 9.28059C1.03157 7.87183 0.364656 5.06761 1.67118 2.87514C4.17111 5.87221 7.8596 7.69419 11.8191 7.88703C11.4223 6.22083 11.9644 4.47484 13.2436 3.30357C15.2268 1.48728 18.3459 1.58038 20.2101 3.5116C21.3129 3.29977 22.3698 2.90554 23.337 2.34698C22.9694 3.45746 22.2001 4.40075 21.1725 5.00016C22.1484 4.88807 23.102 4.63348 24 4.24496C23.3389 5.2101 22.5063 6.05079 21.543 6.73Z" fill="#2CE5A7"/>
</g>
<defs>
<clipPath id="clip0_172_1758">
<rect width="24" height="24" fill="white"/>
</clipPath>
</defs>
</svg>
