<svg width="24" height="24" viewBox="0 0 24 24" fill="none" xmlns="http://www.w3.org/2000/svg">
<path d="M23.1906 6.37802C22.922 5.37301 22.1306 4.58161 21.1256 4.31301C19.3041 3.82488 12 3.82488 12 3.82488C12 3.82488 4.69594 3.82488 2.8744 4.31301C1.86946 4.58161 1.07796 5.37301 0.80937 6.37802C0.321289 8.19952 0.321289 12 0.321289 12C0.321289 12 0.321289 15.8004 0.80937 17.6221C1.07796 18.627 1.86946 19.4183 2.8744 19.6871C4.69594 20.1751 12 20.1751 12 20.1751C12 20.1751 19.3041 20.1751 21.1256 19.6871C22.1306 19.4183 22.922 18.627 23.1906 17.6221C23.6787 15.8004 23.6787 12 23.6787 12C23.6787 12 23.6787 8.19952 23.1906 6.37802Z" fill="#2CE5A7"/>
<path d="M9.6123 15.4514L15.7171 12.0011L9.6123 8.55041V15.4514Z" fill="#262C3A"/>
</svg>
